<svg width="109" height="47" viewBox="0 0 109 47" fill="none" xmlns="http://www.w3.org/2000/svg">
<path d="M17.8 12.85V17.075C17.8 17.075 21.05 16.75 24.95 16.75C36 16.75 42.5 23.25 42.5 31.7C42.5 40.15 36 46.65 21.7 46.65C10.65 46.65 0.9 46 0.9 46V0.499997H36.65V12.85H17.8ZM21.7 28.45H17.8V34.95H21.7C23.975 34.95 25.6 33.325 25.6 31.7C25.6 30.075 23.975 28.45 21.7 28.45ZM86.0018 40.8V46H69.1018V40.8C54.1518 40.8 46.3518 33 46.3518 23.25C46.3518 13.5 54.1518 5.7 69.1018 5.7V0.499997H86.0018V5.7C100.952 5.7 108.752 13.5 108.752 23.25C108.752 33 100.952 40.8 86.0018 40.8ZM69.1018 29.75V16.75C65.8518 16.75 63.2518 19.35 63.2518 23.25C63.2518 27.15 65.8518 29.75 69.1018 29.75ZM86.0018 16.75V29.75C89.2518 29.75 91.8518 27.15 91.8518 23.25C91.8518 19.35 89.2518 16.75 86.0018 16.75Z" fill="#FF9635"/>
</svg>
